Oswald-Regular-FF.ufo
<glyph name="two" format="1">
  <advance width="1020"/>
  <unicode hex="0032"/>
  <outline>
    <contour>
      <point x="71" y="0" type="line"/>
      <point x="71" y="256" type="line"/>
      <point x="520" y="896" type="line" smooth="yes"/>
      <point x="615" y="1031"/>
      <point x="712" y="1144"/>
      <point x="712" y="1344" type="curve" smooth="yes"/>
      <point x="712" y="1476"/>
      <point x="652" y="1600"/>
      <point x="520" y="1600" type="curve" smooth="yes"/>
      <point x="367" y="1600"/>
      <point x="328" y="1436"/>
      <point x="328" y="1280" type="curve" smooth="yes"/>
      <point x="328" y="1216" type="line"/>
      <point x="72" y="1216" type="line"/>
      <point x="72" y="1280" type="line" smooth="yes"/>
      <point x="72" y="1601"/>
      <point x="199" y="1810"/>
      <point x="520" y="1810" type="curve" smooth="yes"/>
      <point x="815" y="1810"/>
      <point x="968" y="1635"/>
      <point x="968" y="1344" type="curve" smooth="yes"/>
      <point x="968" y="1112"/>
      <point x="875" y="973"/>
      <point x="776" y="832" type="curve"/>
      <point x="328" y="256" type="line"/>
      <point x="968" y="256" type="line"/>
      <point x="968" y="0" type="line"/>
    </contour>
  </outline>
</glyph>
<glyph name="five" format="1">
  <advance width="1050"/>
  <unicode hex="0035"/>
  <outline>
    <contour>
      <point x="535" y="-18" type="curve" smooth="yes"/>
      <point x="202" y="-18"/>
      <point x="92" y="183"/>
      <point x="92" y="512" type="curve"/>
      <point x="348" y="512" type="line"/>
      <point x="348" y="472" type="line" smooth="yes"/>
      <point x="348" y="321"/>
      <point x="369" y="186"/>
      <point x="521" y="186" type="curve" smooth="yes"/>
      <point x="744" y="186"/>
      <point x="732" y="430"/>
      <point x="732" y="658" type="curve" smooth="yes"/>
      <point x="732" y="835"/>
      <point x="719" y="974"/>
      <point x="541" y="974" type="curve" smooth="yes"/>
      <point x="443" y="974"/>
      <point x="377" y="896"/>
      <point x="350" y="826" type="curve"/>
      <point x="132" y="826" type="line"/>
      <point x="132" y="1792" type="line"/>
      <point x="924" y="1792" type="line"/>
      <point x="924" y="1536" type="line"/>
      <point x="364" y="1536" type="line"/>
      <point x="348" y="1102" type="line"/>
      <point x="414" y="1141"/>
      <point x="495" y="1166"/>
      <point x="604" y="1166" type="curve" smooth="yes"/>
      <point x="900" y="1166"/>
      <point x="988" y="937"/>
      <point x="988" y="640" type="curve" smooth="yes"/>
      <point x="988" y="278"/>
      <point x="899" y="-18"/>
    </contour>
  </outline>
</glyph>
<glyph name="six" format="1">
  <advance width="1083"/>
  <unicode hex="0036"/>
  <outline>
    <contour>
      <point x="560" y="192" type="curve" smooth="yes"/>
      <point x="713" y="192"/>
      <point x="752" y="356"/>
      <point x="752" y="512" type="curve" smooth="yes"/>
      <point x="752" y="704"/>
      <point x="752" y="896"/>
      <point x="560" y="896" type="curve" smooth="yes"/>
      <point x="462" y="896"/>
      <point x="402" y="832"/>
      <point x="368" y="768" type="curve"/>
      <point x="368" y="512" type="line" smooth="yes"/>
      <point x="368" y="355"/>
      <point x="408" y="192"/>
    </contour>
    <contour>
      <point x="560" y="-18" type="curve" smooth="yes"/>
      <point x="246" y="-18"/>
      <point x="112" y="254"/>
      <point x="112" y="576" type="curve" smooth="yes"/>
      <point x="112" y="1152" type="line" smooth="yes"/>
      <point x="112" y="1503"/>
      <point x="213" y="1810"/>
      <point x="560" y="1810" type="curve" smooth="yes"/>
      <point x="850" y="1810"/>
      <point x="1008" y="1636"/>
      <point x="1008" y="1344" type="curve"/>
      <point x="752" y="1344" type="line"/>
      <point x="752" y="1501"/>
      <point x="714" y="1600"/>
      <point x="560" y="1600" type="curve" smooth="yes"/>
      <point x="432" y="1600"/>
      <point x="368" y="1472"/>
      <point x="368" y="1216" type="curve" smooth="yes"/>
      <point x="368" y="960" type="line"/>
      <point x="413" y="1038"/>
      <point x="497" y="1088"/>
      <point x="624" y="1088" type="curve" smooth="yes"/>
      <point x="921" y="1088"/>
      <point x="1008" y="870"/>
      <point x="1008" y="576" type="curve" smooth="yes"/>
      <point x="1008" y="251"/>
      <point x="884" y="-18"/>
    </contour>
  </outline>
</glyph>
<glyph name="less" format="1">
  <advance width="832"/>
  <unicode hex="003C"/>
  <outline>
    <contour>
      <point x="704" y="64" type="line"/>
      <point x="64" y="512" type="line"/>
      <point x="64" y="768" type="line"/>
      <point x="704" y="1216" type="line"/>
      <point x="704" y="960" type="line"/>
      <point x="256" y="641" type="line"/>
      <point x="704" y="320" type="line"/>
    </contour>
  </outline>
</glyph>
<glyph name="equal" format="1">
  <advance width="704"/>
  <unicode hex="003D"/>
  <outline>
    <contour>
      <point x="64" y="576" type="line"/>
      <point x="64" y="768" type="line"/>
      <point x="640" y="768" type="line"/>
      <point x="640" y="576" type="line"/>
    </contour>
    <contour>
      <point x="64" y="255" type="line"/>
      <point x="64" y="447" type="line"/>
      <point x="640" y="447" type="line"/>
      <point x="640" y="255" type="line"/>
    </contour>
  </outline>
</glyph>
<glyph name="F" format="1">
  <advance width="821"/>
  <unicode hex="0046"/>
  <outline>
    <contour>
      <point x="128" y="0" type="line"/>
      <point x="128" y="1792" type="line"/>
      <point x="832" y="1792" type="line"/>
      <point x="832" y="1600" type="line"/>
      <point x="384" y="1600" type="line"/>
      <point x="384" y="1024" type="line"/>
      <point x="704" y="1024" type="line"/>
      <point x="704" y="832" type="line"/>
      <point x="384" y="832" type="line"/>
      <point x="384" y="0" type="line"/>
    </contour>
  </outline>
</glyph>
<glyph name="J" format="1">
  <advance width="640"/>
  <unicode hex="004A"/>
  <outline>
    <contour>
      <point x="0" y="0" type="line"/>
      <point x="0" y="192" type="line"/>
      <point x="210" y="192"/>
      <point x="256" y="233"/>
      <point x="256" y="448" type="curve" smooth="yes"/>
      <point x="256" y="1792" type="line"/>
      <point x="512" y="1792" type="line"/>
      <point x="512" y="448" type="line" smooth="yes"/>
      <point x="512" y="138"/>
      <point x="440" y="0"/>
      <point x="128" y="0" type="curve" smooth="yes"/>
    </contour>
  </outline>
</glyph>
<glyph name="bracketleft" format="1">
  <advance width="768"/>
  <unicode hex="005B"/>
  <outline>
    <contour>
      <point x="128" y="-64" type="line"/>
      <point x="128" y="1856" type="line"/>
      <point x="640" y="1856" type="line"/>
      <point x="640" y="1728" type="line"/>
      <point x="384" y="1728" type="line"/>
      <point x="384" y="64" type="line"/>
      <point x="640" y="64" type="line"/>
      <point x="640" y="-64" type="line"/>
    </contour>
  </outline>
</glyph>
<glyph name="underscore" format="1">
  <advance width="768"/>
  <unicode hex="005F"/>
  <outline>
    <contour>
      <point x="0" y="0" type="line"/>
      <point x="0" y="192" type="line"/>
      <point x="768" y="192" type="line"/>
      <point x="768" y="0" type="line"/>
    </contour>
  </outline>
</glyph>
<glyph name="k" format="1">
  <advance width="961"/>
  <unicode hex="006B"/>
  <outline>
    <contour>
      <point x="117" y="0" type="line"/>
      <point x="117" y="1792" type="line"/>
      <point x="373" y="1792" type="line"/>
      <point x="373" y="807" type="line"/>
      <point x="693" y="1280" type="line"/>
      <point x="949" y="1280" type="line"/>
      <point x="662" y="833" type="line"/>
      <point x="949" y="0" type="line"/>
      <point x="693" y="0" type="line"/>
      <point x="501" y="619" type="line"/>
      <point x="373" y="448" type="line"/>
      <point x="373" y="0" type="line"/>
    </contour>
  </outline>
</glyph>
<glyph name="o" format="1">
  <advance width="954"/>
  <unicode hex="006F"/>
  <outline>
    <contour>
      <point x="477" y="1298" type="line"/>
      <point x="765" y="1298"/>
      <point x="861" y="1131"/>
      <point x="861" y="832" type="curve"/>
      <point x="605" y="832" type="line"/>
      <point x="605" y="1001"/>
      <point x="593" y="1088"/>
      <point x="477" y="1088" type="curve"/>
    </contour>
  </outline>
</glyph>
<glyph name="v" format="1">
  <advance width="872"/>
  <unicode hex="0076"/>
  <outline>
    <contour>
      <point x="308" y="0" type="line"/>
      <point x="20" y="1280" type="line"/>
      <point x="266" y="1280" type="line"/>
      <point x="444" y="319" type="line"/>
      <point x="606" y="1280" type="line"/>
      <point x="852" y="1280" type="line"/>
      <point x="566" y="0" type="line"/>
    </contour>
  </outline>
</glyph>
<glyph name="w" format="1">
  <advance width="1281"/>
  <unicode hex="0077"/>
  <outline>
    <contour>
      <point x="257" y="0" type="line"/>
      <point x="20" y="1280" type="line"/>
      <point x="247" y="1280" type="line"/>
      <point x="389" y="308" type="line"/>
      <point x="523" y="1280" type="line"/>
      <point x="757" y="1280" type="line"/>
      <point x="893" y="318" type="line"/>
      <point x="1033" y="1280" type="line"/>
      <point x="1261" y="1280" type="line"/>
      <point x="1013" y="0" type="line"/>
      <point x="777" y="0" type="line"/>
      <point x="641" y="882" type="line"/>
      <point x="503" y="0" type="line"/>
    </contour>
  </outline>
</glyph>
<glyph name="x" format="1">
  <advance width="866"/>
  <unicode hex="0078"/>
  <outline>
    <contour>
      <point x="17" y="0" type="line"/>
      <point x="273" y="640" type="line"/>
      <point x="273" y="666" type="line"/>
      <point x="17" y="1280" type="line"/>
      <point x="264" y="1280" type="line"/>
      <point x="435" y="791" type="line"/>
      <point x="606" y="1280" type="line"/>
      <point x="849" y="1280" type="line"/>
      <point x="593" y="666" type="line"/>
      <point x="593" y="640" type="line"/>
      <point x="849" y="0" type="line"/>
      <point x="593" y="0" type="line"/>
      <point x="441" y="493" type="line"/>
      <point x="273" y="0" type="line"/>
    </contour>
  </outline>
</glyph>
<glyph name="cent" format="1">
  <advance width="1027"/>
  <unicode hex="00A2"/>
  <outline>
    <contour>
      <point x="479" y="206" type="curve"/>
      <point x="479" y="1071" type="line"/>
      <point x="366" y="1017"/>
      <point x="385" y="811"/>
      <point x="385" y="640" type="curve" smooth="yes"/>
      <point x="385" y="472"/>
      <point x="360" y="253"/>
    </contour>
    <contour>
      <point x="479" y="-128" type="line"/>
      <point x="479" y="-15" type="line"/>
      <point x="181" y="9"/>
      <point x="129" y="210"/>
      <point x="129" y="532" type="curve" smooth="yes"/>
      <point x="129" y="733" type="line" smooth="yes"/>
      <point x="129" y="1047"/>
      <point x="191" y="1266"/>
      <point x="479" y="1294" type="curve"/>
      <point x="479" y="1408" type="line"/>
      <point x="557" y="1408" type="line"/>
      <point x="557" y="1294" type="line"/>
      <point x="802" y="1266"/>
      <point x="897" y="1100"/>
      <point x="897" y="831" type="curve"/>
      <point x="641" y="832" type="line"/>
      <point x="641" y="944"/>
      <point x="634" y="1038"/>
      <point x="557" y="1073" type="curve"/>
      <point x="557" y="207" type="line"/>
      <point x="639" y="247"/>
      <point x="641" y="352"/>
      <point x="641" y="473" type="curve"/>
      <point x="897" y="473" type="line"/>
      <point x="897" y="461"/>
      <point x="898" y="446"/>
      <point x="898" y="430" type="curve" smooth="yes"/>
      <point x="898" y="181"/>
      <point x="785" y="12"/>
      <point x="557" y="-14" type="curve"/>
      <point x="557" y="-128" type="line"/>
    </contour>
  </outline>
</glyph>
<glyph name="sterling" format="1">
  <advance width="896"/>
  <unicode hex="00A3"/>
  <outline>
    <contour>
      <point x="0" y="0" type="line"/>
      <point x="0" y="128" type="line"/>
      <point x="128" y="191" type="line"/>
      <point x="128" y="768" type="line"/>
      <point x="0" y="768" type="line"/>
      <point x="0" y="960" type="line"/>
      <point x="128" y="960" type="line"/>
      <point x="128" y="1152" type="line" smooth="yes"/>
      <point x="128" y="1498"/>
      <point x="165" y="1810"/>
      <point x="512" y="1810" type="curve" smooth="yes"/>
      <point x="743" y="1810"/>
      <point x="830" y="1647"/>
      <point x="832" y="1422" type="curve"/>
      <point x="832" y="1344" type="line"/>
      <point x="640" y="1344" type="line"/>
      <point x="640" y="1462"/>
      <point x="629" y="1600"/>
      <point x="512" y="1600" type="curve" smooth="yes"/>
      <point x="398" y="1600"/>
      <point x="387" y="1448"/>
      <point x="384" y="1330" type="curve"/>
      <point x="384" y="960" type="line"/>
      <point x="640" y="960" type="line"/>
      <point x="640" y="768" type="line"/>
      <point x="384" y="768" type="line"/>
      <point x="384" y="192" type="line"/>
      <point x="832" y="192" type="line"/>
      <point x="832" y="0" type="line"/>
    </contour>
  </outline>
</glyph>
<glyph name="uni00AD" format="1">
  <advance width="768"/>
  <unicode hex="00AD"/>
  <outline>
    <contour>
      <point x="128" y="448" type="line"/>
      <point x="128" y="640" type="line"/>
      <point x="640" y="640" type="line"/>
      <point x="640" y="448" type="line"/>
    </contour>
  </outline>
</glyph>
<glyph name="uni00B9" format="1">
  <advance width="512"/>
  <unicode hex="00B9"/>
  <outline>
    <contour>
      <point x="192" y="640" type="line"/>
      <point x="192" y="1216" type="line"/>
      <point x="64" y="1216" type="line"/>
      <point x="64" y="1344" type="line"/>
      <point x="167" y="1395"/>
      <point x="253" y="1453"/>
      <point x="320" y="1536" type="curve"/>
      <point x="384" y="1536" type="line"/>
      <point x="384" y="640" type="line"/>
    </contour>
  </outline>
</glyph>
<glyph name="questiondown" format="1">
  <advance width="891"/>
  <unicode hex="00BF"/>
  <outline>
    <contour>
      <point x="343" y="1106" type="line"/>
      <point x="343" y="1329" type="line"/>
      <point x="564" y="1329" type="line"/>
      <point x="564" y="1106" type="line"/>
    </contour>
    <contour>
      <point x="430" y="-5" type="curve" smooth="yes"/>
      <point x="194" y="-5"/>
      <point x="80" y="114"/>
      <point x="80" y="346" type="curve" smooth="yes"/>
      <point x="80" y="545"/>
      <point x="243" y="704"/>
      <point x="349" y="812" type="curve"/>
      <point x="349" y="1029" type="line"/>
      <point x="565" y="1029" type="line"/>
      <point x="565" y="760" type="line"/>
      <point x="485" y="659"/>
      <point x="318" y="495"/>
      <point x="318" y="328" type="curve" smooth="yes"/>
      <point x="318" y="250"/>
      <point x="350" y="202"/>
      <point x="430" y="202" type="curve" smooth="yes"/>
      <point x="546" y="202"/>
      <point x="571" y="306"/>
      <point x="571" y="421" type="curve"/>
      <point x="790" y="421" type="line"/>
      <point x="790" y="396" type="line" smooth="yes"/>
      <point x="790" y="155"/>
      <point x="672" y="-5"/>
    </contour>
  </outline>
</glyph>
<glyph name="AE" format="1">
  <advance width="1408"/>
  <unicode hex="00C6"/>
  <outline>
    <contour>
      <point x="393" y="640" type="line"/>
      <point x="640" y="640" type="line"/>
      <point x="640" y="1298" type="line"/>
    </contour>
    <contour>
      <point x="-126" y="0" type="line"/>
      <point x="638" y="1792" type="line"/>
      <point x="1344" y="1792" type="line"/>
      <point x="1344" y="1600" type="line"/>
      <point x="896" y="1600" type="line"/>
      <point x="896" y="1024" type="line"/>
      <point x="1216" y="1024" type="line"/>
      <point x="1216" y="832" type="line"/>
      <point x="896" y="832" type="line"/>
      <point x="896" y="192" type="line"/>
      <point x="1344" y="192" type="line"/>
      <point x="1344" y="0" type="line"/>
      <point x="640" y="0" type="line"/>
      <point x="640" y="448" type="line"/>
      <point x="320" y="448" type="line"/>
      <point x="129" y="0" type="line"/>
    </contour>
  </outline>
</glyph>
<glyph name="Thorn" format="1">
  <advance width="952"/>
  <unicode hex="00DE"/>
  <outline>
    <contour>
      <point x="324" y="581" type="line"/>
      <point x="369" y="581" type="line" smooth="yes"/>
      <point x="562" y="581"/>
      <point x="669" y="642"/>
      <point x="669" y="888" type="curve" smooth="yes"/>
      <point x="669" y="1110"/>
      <point x="586" y="1188"/>
      <point x="401" y="1188" type="curve" smooth="yes"/>
      <point x="324" y="1188" type="line"/>
    </contour>
    <contour>
      <point x="72" y="0" type="line"/>
      <point x="72" y="1792" type="line"/>
      <point x="324" y="1792" type="line"/>
      <point x="324" y="1411" type="line"/>
      <point x="504" y="1411" type="line" smooth="yes"/>
      <point x="799" y="1411"/>
      <point x="931" y="1210"/>
      <point x="931" y="886" type="curve" smooth="yes"/>
      <point x="931" y="533"/>
      <point x="772" y="364"/>
      <point x="457" y="364" type="curve" smooth="yes"/>
      <point x="326" y="364" type="line"/>
      <point x="326" y="0" type="line"/>
    </contour>
  </outline>
</glyph>
<glyph name="Cdotaccent" format="1">
  <advance width="1107"/>
  <unicode hex="010A"/>
  <outline>
    <component base="C"/>
    <contour>
      <point x="452" y="1912" type="line"/>
      <point x="452" y="2168" type="line"/>
      <point x="708" y="2168" type="line"/>
      <point x="708" y="1912" type="line"/>
    </contour>
  </outline>
</glyph>
<glyph name="cdotaccent" format="1">
  <advance width="901"/>
  <unicode hex="010B"/>
  <outline>
    <component base="c"/>
    <contour>
      <point x="349" y="1400" type="line"/>
      <point x="349" y="1656" type="line"/>
      <point x="605" y="1656" type="line"/>
      <point x="605" y="1400" type="line"/>
    </contour>
  </outline>
</glyph>
<glyph name="gdotaccent" format="1">
  <advance width="968"/>
  <unicode hex="0121"/>
  <outline>
    <component base="g"/>
    <contour>
      <point x="370" y="1400" type="line"/>
      <point x="370" y="1656" type="line"/>
      <point x="626" y="1656" type="line"/>
      <point x="626" y="1400" type="line"/>
    </contour>
  </outline>
</glyph>
<glyph name="Idotaccent" format="1">
  <advance width="542"/>
  <unicode hex="0130"/>
  <outline>
    <component base="I"/>
    <contour>
      <point x="140" y="1912" type="line"/>
      <point x="140" y="2168" type="line"/>
      <point x="396" y="2168" type="line"/>
      <point x="396" y="1912" type="line"/>
    </contour>
  </outline>
</glyph>
<glyph name="OE" format="1">
  <advance width="1664"/>
  <unicode hex="0152"/>
  <outline>
    <contour>
      <point x="640" y="192" type="curve" smooth="yes"/>
      <point x="832" y="192"/>
      <point x="896" y="320"/>
      <point x="896" y="512" type="curve" smooth="yes"/>
      <point x="896" y="1294" type="line"/>
      <point x="893" y="1478"/>
      <point x="827" y="1600"/>
      <point x="640" y="1600" type="curve" smooth="yes"/>
      <point x="448" y="1600"/>
      <point x="384" y="1472"/>
      <point x="384" y="1280" type="curve" smooth="yes"/>
      <point x="384" y="512" type="line" smooth="yes"/>
      <point x="384" y="320"/>
      <point x="448" y="192"/>
    </contour>
    <contour>
      <point x="640" y="-18" type="curve" smooth="yes"/>
      <point x="273" y="-18"/>
      <point x="128" y="211"/>
      <point x="128" y="576" type="curve" smooth="yes"/>
      <point x="128" y="1216" type="line" smooth="yes"/>
      <point x="128" y="1581"/>
      <point x="273" y="1810"/>
      <point x="640" y="1810" type="curve" smooth="yes"/>
      <point x="772" y="1810"/>
      <point x="850" y="1748"/>
      <point x="896" y="1664" type="curve"/>
      <point x="896" y="1792" type="line"/>
      <point x="1600" y="1792" type="line"/>
      <point x="1600" y="1600" type="line"/>
      <point x="1152" y="1600" type="line"/>
      <point x="1152" y="1024" type="line"/>
      <point x="1472" y="1024" type="line"/>
      <point x="1472" y="832" type="line"/>
      <point x="1152" y="832" type="line"/>
      <point x="1152" y="192" type="line"/>
      <point x="1600" y="192" type="line"/>
      <point x="1600" y="0" type="line"/>
      <point x="896" y="0" type="line"/>
      <point x="896" y="128" type="line"/>
      <point x="852" y="43"/>
      <point x="772" y="-18"/>
    </contour>
  </outline>
</glyph>
<glyph name="ogonek" format="1">
  <advance width="537"/>
  <unicode hex="02DB"/>
  <outline>
    <contour>
      <point x="357" y="-513" type="line" smooth="yes"/>
      <point x="122" y="-513"/>
      <point x="-46" y="-507"/>
      <point x="-46" y="-321" type="curve" smooth="yes"/>
      <point x="-46" y="-170"/>
      <point x="93" y="-25"/>
      <point x="210" y="9" type="curve"/>
      <point x="338" y="9" type="line"/>
      <point x="277" y="-70"/>
      <point x="146" y="-203"/>
      <point x="146" y="-317" type="curve" smooth="yes"/>
      <point x="146" y="-382"/>
      <point x="224" y="-391"/>
      <point x="290" y="-391" type="curve" smooth="yes"/>
      <point x="326" y="-391"/>
      <point x="372" y="-385"/>
      <point x="402" y="-385" type="curve"/>
      <point x="402" y="-513" type="line"/>
    </contour>
  </outline>
</glyph>
<glyph name="dagger" format="1">
  <advance width="850"/>
  <unicode hex="2020"/>
  <outline>
    <contour>
      <point x="300" y="0" type="line"/>
      <point x="300" y="990" type="line"/>
      <point x="100" y="990" type="line"/>
      <point x="100" y="1190" type="line"/>
      <point x="300" y="1190" type="line"/>
      <point x="300" y="1536" type="line"/>
      <point x="550" y="1536" type="line"/>
      <point x="550" y="1190" type="line"/>
      <point x="751" y="1190" type="line"/>
      <point x="751" y="990" type="line"/>
      <point x="550" y="990" type="line"/>
      <point x="550" y="0" type="line"/>
    </contour>
  </outline>
</glyph>
<glyph name="guilsinglright" format="1">
  <advance width="577"/>
  <unicode hex="203A"/>
  <outline>
    <contour>
      <point x="64" y="64" type="line"/>
      <point x="64" y="384" type="line"/>
      <point x="320" y="641" type="line"/>
      <point x="64" y="896" type="line"/>
      <point x="64" y="1216" type="line"/>
      <point x="512" y="704" type="line"/>
      <point x="512" y="576" type="line"/>
    </contour>
  </outline>
</glyph>
<glyph name="foundryicon" format="1">
  <advance width="1362"/>
  <outline>
    <contour>
      <point x="221" y="277" type="line"/>
      <point x="389" y="819" type="line"/>
      <point x="-70" y="1157" type="line"/>
      <point x="502" y="1168" type="line"/>
      <point x="680" y="1710" type="line"/>
      <point x="868" y="1168" type="line"/>
      <point x="1440" y="1168" type="line"/>
      <point x="979" y="819" type="line"/>
      <point x="1149" y="277" type="line"/>
      <point x="680" y="604" type="line"/>
    </contour>
  </outline>
</glyph>
